<svg width="100%" viewBox="0 0 680 500" xmlns="http://www.w3.org/2000/svg">
<defs><marker id="arrow" viewBox="0 0 10 10" refX="8" refY="5" markerWidth="6" markerHeight="6" orient="auto-start-reverse"><path d="M2 1L8 5L2 9" fill="none" stroke="#888" stroke-width="1.5" stroke-linecap="round" stroke-linejoin="round"/></marker></defs>
<text font-family="sans-serif" font-size="11" fill="#4A4844" x="340" y="18" text-anchor="middle">simEngine.js — key moment types</text>

<rect x="215" y="30" width="250" height="44" rx="8" fill="#F1EFE8" stroke="#5F5E5A" stroke-width="0.5"/><text font-family="sans-serif" font-size="14" font-weight="500" x="340" y="52" text-anchor="middle" dominant-baseline="central" fill="#5F5E5A">Game sim runs</text>
<line x1="340" y1="74" x2="340" y2="110" stroke="#888" stroke-width="1.5" marker-end="url(#arrow)"/>
<rect x="155" y="110" width="370" height="44" rx="8" fill="#FAEEDA" stroke="#854F0B" stroke-width="0.5"/><text font-family="sans-serif" font-size="14" font-weight="500" x="340" y="132" text-anchor="middle" dominant-baseline="central" fill="#854F0B">Key moment check each possession</text>
<line x1="175" y1="132" x2="60" y2="200" stroke="#888" stroke-width="1.5" marker-end="url(#arrow)"/> <line x1="260" y1="154" x2="160" y2="200" stroke="#888" stroke-width="1.5" marker-end="url(#arrow)"/> <line x1="340" y1="154" x2="340" y2="200" stroke="#888" stroke-width="1.5" marker-end="url(#arrow)"/> <line x1="420" y1="154" x2="510" y2="200" stroke="#888" stroke-width="1.5" marker-end="url(#arrow)"/> <line x1="505" y1="132" x2="620" y2="200" stroke="#888" stroke-width="1.5" marker-end="url(#arrow)"/>
<rect x="15" y="200" width="100" height="56" rx="8" fill="#FAECE7" stroke="#993C1D" stroke-width="0.5"/><text font-family="sans-serif" font-size="14" font-weight="500" x="65" y="219" text-anchor="middle" dominant-baseline="central" fill="#993C1D">Momentum</text><text font-family="sans-serif" font-size="12" x="65" y="239" text-anchor="middle" dominant-baseline="central" fill="#993C1D">40% chance</text>
<rect x="120" y="200" width="100" height="56" rx="8" fill="#FAECE7" stroke="#993C1D" stroke-width="0.5"/><text font-family="sans-serif" font-size="14" font-weight="500" x="170" y="219" text-anchor="middle" dominant-baseline="central" fill="#993C1D">Clutch time</text><text font-family="sans-serif" font-size="12" x="170" y="239" text-anchor="middle" dominant-baseline="central" fill="#993C1D">Score ≤5 final 2</text>
<rect x="290" y="200" width="100" height="56" rx="8" fill="#FAECE7" stroke="#993C1D" stroke-width="0.5"/><text font-family="sans-serif" font-size="14" font-weight="500" x="340" y="219" text-anchor="middle" dominant-baseline="central" fill="#993C1D">Persona</text><text font-family="sans-serif" font-size="12" x="340" y="239" text-anchor="middle" dominant-baseline="central" fill="#993C1D">Trait check</text>
<rect x="460" y="200" width="100" height="56" rx="8" fill="#FAECE7" stroke="#993C1D" stroke-width="0.5"/><text font-family="sans-serif" font-size="14" font-weight="500" x="510" y="219" text-anchor="middle" dominant-baseline="central" fill="#993C1D">Injury</text><text font-family="sans-serif" font-size="12" x="510" y="239" text-anchor="middle" dominant-baseline="central" fill="#993C1D">2% per player</text>
<rect x="565" y="200" width="100" height="56" rx="8" fill="#FAECE7" stroke="#993C1D" stroke-width="0.5"/><text font-family="sans-serif" font-size="14" font-weight="500" x="615" y="219" text-anchor="middle" dominant-baseline="central" fill="#993C1D">Breakout</text><text font-family="sans-serif" font-size="12" x="615" y="239" text-anchor="middle" dominant-baseline="central" fill="#993C1D">1.4x avg check</text>
<line x1="65" y1="256" x2="200" y2="314" stroke="#888" stroke-width="1.5" marker-end="url(#arrow)"/> <line x1="170" y1="256" x2="240" y2="314" stroke="#888" stroke-width="1.5" marker-end="url(#arrow)"/> <line x1="340" y1="256" x2="340" y2="314" stroke="#888" stroke-width="1.5" marker-end="url(#arrow)"/> <line x1="510" y1="256" x2="420" y2="314" stroke="#888" stroke-width="1.5" marker-end="url(#arrow)"/> <line x1="615" y1="256" x2="480" y2="314" stroke="#888" stroke-width="1.5" marker-end="url(#arrow)"/>
<rect x="155" y="314" width="370" height="56" rx="8" fill="#EEEDFE" stroke="#534AB7" stroke-width="0.5"/><text font-family="sans-serif" font-size="14" font-weight="500" x="340" y="333" text-anchor="middle" dominant-baseline="central" fill="#534AB7">generatePlayDescription()</text><text font-family="sans-serif" font-size="12" x="340" y="353" text-anchor="middle" dominant-baseline="central" fill="#534AB7">Tendency + signature move text</text>
<line x1="340" y1="370" x2="340" y2="406" stroke="#888" stroke-width="1.5" marker-end="url(#arrow)"/>
<rect x="155" y="406" width="370" height="44" rx="8" fill="#E1F5EE" stroke="#0F6E56" stroke-width="0.5"/><text font-family="sans-serif" font-size="14" font-weight="500" x="340" y="428" text-anchor="middle" dominant-baseline="central" fill="#0F6E56">Save to play_by_play table</text>

</svg>