<svg width="100%" viewBox="0 0 680 560" xmlns="http://www.w3.org/2000/svg">
<defs><marker id="arrow" viewBox="0 0 10 10" refX="8" refY="5" markerWidth="6" markerHeight="6" orient="auto-start-reverse"><path d="M2 1L8 5L2 9" fill="none" stroke="#888" stroke-width="1.5" stroke-linecap="round" stroke-linejoin="round"/></marker></defs>
<text font-family="sans-serif" font-size="11" fill="#4A4844" x="340" y="18" text-anchor="middle">chemistryEngine.js — pair update flow</text>

<rect x="215" y="30" width="250" height="44" rx="8" fill="#F1EFE8" stroke="#5F5E5A" stroke-width="0.5"/><text font-family="sans-serif" font-size="14" font-weight="500" x="340" y="52" text-anchor="middle" dominant-baseline="central" fill="#5F5E5A">Two players share roster</text>
<line x1="340" y1="74" x2="340" y2="110" stroke="#888" stroke-width="1.5" marker-end="url(#arrow)"/>
<rect x="155" y="110" width="370" height="56" rx="8" fill="#EEEDFE" stroke="#534AB7" stroke-width="0.5"/><text font-family="sans-serif" font-size="14" font-weight="500" x="340" y="129" text-anchor="middle" dominant-baseline="central" fill="#534AB7">initChemistryPairs()</text><text font-family="sans-serif" font-size="12" x="340" y="149" text-anchor="middle" dominant-baseline="central" fill="#534AB7">Initialize at 50% of compat ceiling</text>
<line x1="340" y1="166" x2="340" y2="202" stroke="#888" stroke-width="1.5" marker-end="url(#arrow)"/>
<rect x="155" y="202" width="370" height="44" rx="8" fill="#F1EFE8" stroke="#5F5E5A" stroke-width="0.5"/><text font-family="sans-serif" font-size="14" font-weight="500" x="340" y="224" text-anchor="middle" dominant-baseline="central" fill="#5F5E5A">4 drivers update each week</text>
<line x1="175" y1="224" x2="80" y2="288" stroke="#888" stroke-width="1.5" marker-end="url(#arrow)"/> <line x1="280" y1="246" x2="200" y2="288" stroke="#888" stroke-width="1.5" marker-end="url(#arrow)"/> <line x1="400" y1="246" x2="460" y2="288" stroke="#888" stroke-width="1.5" marker-end="url(#arrow)"/> <line x1="505" y1="224" x2="600" y2="288" stroke="#888" stroke-width="1.5" marker-end="url(#arrow)"/>
<rect x="30" y="288" width="140" height="56" rx="8" fill="#FAECE7" stroke="#993C1D" stroke-width="0.5"/><text font-family="sans-serif" font-size="14" font-weight="500" x="100" y="307" text-anchor="middle" dominant-baseline="central" fill="#993C1D">Persona bond/clash</text><text font-family="sans-serif" font-size="12" x="100" y="327" text-anchor="middle" dominant-baseline="central" fill="#993C1D">Ceiling set by compat</text>
<rect x="155" y="288" width="120" height="56" rx="8" fill="#FAECE7" stroke="#993C1D" stroke-width="0.5"/><text font-family="sans-serif" font-size="14" font-weight="500" x="215" y="307" text-anchor="middle" dominant-baseline="central" fill="#993C1D">Time together</text><text font-family="sans-serif" font-size="12" x="215" y="327" text-anchor="middle" dominant-baseline="central" fill="#993C1D">+1 per week</text>
<rect x="410" y="288" width="120" height="56" rx="8" fill="#FAECE7" stroke="#993C1D" stroke-width="0.5"/><text font-family="sans-serif" font-size="14" font-weight="500" x="470" y="307" text-anchor="middle" dominant-baseline="central" fill="#993C1D">Big moments</text><text font-family="sans-serif" font-size="12" x="470" y="327" text-anchor="middle" dominant-baseline="central" fill="#993C1D">Win+5 loss-4</text>
<rect x="540" y="288" width="120" height="56" rx="8" fill="#FAECE7" stroke="#993C1D" stroke-width="0.5"/><text font-family="sans-serif" font-size="14" font-weight="500" x="600" y="307" text-anchor="middle" dominant-baseline="central" fill="#993C1D">Coach effect</text><text font-family="sans-serif" font-size="12" x="600" y="327" text-anchor="middle" dominant-baseline="central" fill="#993C1D">Team-wide mod</text>
<line x1="100" y1="344" x2="220" y2="400" stroke="#888" stroke-width="1.5" marker-end="url(#arrow)"/> <line x1="215" y1="344" x2="260" y2="400" stroke="#888" stroke-width="1.5" marker-end="url(#arrow)"/> <line x1="470" y1="344" x2="400" y2="400" stroke="#888" stroke-width="1.5" marker-end="url(#arrow)"/> <line x1="600" y1="344" x2="480" y2="400" stroke="#888" stroke-width="1.5" marker-end="url(#arrow)"/>
<rect x="155" y="400" width="370" height="56" rx="8" fill="#FAEEDA" stroke="#854F0B" stroke-width="0.5"/><text font-family="sans-serif" font-size="14" font-weight="500" x="340" y="419" text-anchor="middle" dominant-baseline="central" fill="#854F0B">updateChemistryPairs()</text><text font-family="sans-serif" font-size="12" x="340" y="439" text-anchor="middle" dominant-baseline="central" fill="#854F0B">Score capped at ceiling, floored at 0</text>
<line x1="340" y1="456" x2="340" y2="492" stroke="#888" stroke-width="1.5" marker-end="url(#arrow)"/>
<rect x="155" y="492" width="370" height="56" rx="8" fill="#E1F5EE" stroke="#0F6E56" stroke-width="0.5"/><text font-family="sans-serif" font-size="14" font-weight="500" x="340" y="511" text-anchor="middle" dominant-baseline="central" fill="#0F6E56">calcTeamChemistry()</text><text font-family="sans-serif" font-size="12" x="340" y="531" text-anchor="middle" dominant-baseline="central" fill="#0F6E56">Weighted avg → team score 0-100</text>

</svg>