<svg width="100%" viewBox="0 0 680 660" xmlns="http://www.w3.org/2000/svg">
<defs><marker id="arrow" viewBox="0 0 10 10" refX="8" refY="5" markerWidth="6" markerHeight="6" orient="auto-start-reverse"><path d="M2 1L8 5L2 9" fill="none" stroke="#888" stroke-width="1.5" stroke-linecap="round" stroke-linejoin="round"/></marker></defs>
<text font-family="sans-serif" font-size="11" fill="#4A4844" x="340" y="18" text-anchor="middle">weeklyTick.js — full sequence</text>

<rect x="215" y="30" width="250" height="44" rx="8" fill="#F1EFE8" stroke="#5F5E5A" stroke-width="0.5"/><text font-family="sans-serif" font-size="14" font-weight="500" x="340" y="52" text-anchor="middle" dominant-baseline="central" fill="#5F5E5A">Player advances week</text>
<line x1="340" y1="74" x2="340" y2="110" stroke="#888" stroke-width="1.5" marker-end="url(#arrow)"/>
<rect x="155" y="110" width="370" height="44" rx="8" fill="#FAEEDA" stroke="#854F0B" stroke-width="0.5"/><text font-family="sans-serif" font-size="14" font-weight="500" x="340" y="132" text-anchor="middle" dominant-baseline="central" fill="#854F0B">Your game already simulated</text>
<line x1="340" y1="154" x2="340" y2="190" stroke="#888" stroke-width="1.5" marker-end="url(#arrow)"/>
<rect x="155" y="190" width="370" height="44" rx="8" fill="#EEEDFE" stroke="#534AB7" stroke-width="0.5"/><text font-family="sans-serif" font-size="14" font-weight="500" x="340" y="212" text-anchor="middle" dominant-baseline="central" fill="#534AB7">Sim all 29 AI games (math only)</text>
<line x1="340" y1="234" x2="340" y2="270" stroke="#888" stroke-width="1.5" marker-end="url(#arrow)"/>
<rect x="155" y="270" width="370" height="44" rx="8" fill="#EEEDFE" stroke="#534AB7" stroke-width="0.5"/><text font-family="sans-serif" font-size="14" font-weight="500" x="340" y="292" text-anchor="middle" dominant-baseline="central" fill="#534AB7">Update all 30 team standings</text>
<line x1="340" y1="314" x2="340" y2="350" stroke="#888" stroke-width="1.5" marker-end="url(#arrow)"/>
<rect x="155" y="350" width="370" height="44" rx="8" fill="#EEEDFE" stroke="#534AB7" stroke-width="0.5"/><text font-family="sans-serif" font-size="14" font-weight="500" x="340" y="372" text-anchor="middle" dominant-baseline="central" fill="#534AB7">Dev ticks fire — your roster</text>
<line x1="340" y1="394" x2="340" y2="430" stroke="#888" stroke-width="1.5" marker-end="url(#arrow)"/>
<rect x="155" y="430" width="370" height="44" rx="8" fill="#EEEDFE" stroke="#534AB7" stroke-width="0.5"/><text font-family="sans-serif" font-size="14" font-weight="500" x="340" y="452" text-anchor="middle" dominant-baseline="central" fill="#534AB7">Chemistry pairs update</text>
<line x1="340" y1="474" x2="340" y2="510" stroke="#888" stroke-width="1.5" marker-end="url(#arrow)"/>
<rect x="155" y="510" width="370" height="44" rx="8" fill="#EEEDFE" stroke="#534AB7" stroke-width="0.5"/><text font-family="sans-serif" font-size="14" font-weight="500" x="340" y="532" text-anchor="middle" dominant-baseline="central" fill="#534AB7">Draft pick values recalculate</text>
<line x1="340" y1="554" x2="340" y2="590" stroke="#888" stroke-width="1.5" marker-end="url(#arrow)"/>
<rect x="155" y="590" width="370" height="44" rx="8" fill="#FAEEDA" stroke="#854F0B" stroke-width="0.5"/><text font-family="sans-serif" font-size="14" font-weight="500" x="340" y="612" text-anchor="middle" dominant-baseline="central" fill="#854F0B">Story beat triggers checked + saved</text>
<line x1="340" y1="634" x2="340" y2="646" stroke="#888" stroke-width="1.5" marker-end="url(#arrow)"/>
<rect x="215" y="646" width="250" height="44" rx="8" fill="#E1F5EE" stroke="#0F6E56" stroke-width="0.5"/><text font-family="sans-serif" font-size="14" font-weight="500" x="340" y="668" text-anchor="middle" dominant-baseline="central" fill="#0F6E56">Week advances — dashboard refreshes</text>

</svg>