<svg width="100%" viewBox="0 0 680 560" xmlns="http://www.w3.org/2000/svg">
<defs><marker id="arrow" viewBox="0 0 10 10" refX="8" refY="5" markerWidth="6" markerHeight="6" orient="auto-start-reverse"><path d="M2 1L8 5L2 9" fill="none" stroke="#888" stroke-width="1.5" stroke-linecap="round" stroke-linejoin="round"/></marker></defs>
<text font-family="sans-serif" font-size="11" fill="#4A4844" x="340" y="18" text-anchor="middle">Design — animation system 5 layers</text>

<rect x="215" y="30" width="250" height="44" rx="8" fill="#F1EFE8" stroke="#5F5E5A" stroke-width="0.5"/><text font-family="sans-serif" font-size="14" font-weight="500" x="340" y="52" text-anchor="middle" dominant-baseline="central" fill="#5F5E5A">UI event triggers</text>
<line x1="340" y1="74" x2="340" y2="110" stroke="#888" stroke-width="1.5" marker-end="url(#arrow)"/>
<rect x="155" y="110" width="370" height="44" rx="8" fill="#F1EFE8" stroke="#5F5E5A" stroke-width="0.5"/><text font-family="sans-serif" font-size="14" font-weight="500" x="340" y="132" text-anchor="middle" dominant-baseline="central" fill="#5F5E5A">Which animation layer?</text>
<line x1="115" y1="132" x2="55" y2="200" stroke="#888" stroke-width="1.5" marker-end="url(#arrow)"/> <line x1="215" y1="154" x2="165" y2="200" stroke="#888" stroke-width="1.5" marker-end="url(#arrow)"/> <line x1="315" y1="154" x2="285" y2="200" stroke="#888" stroke-width="1.5" marker-end="url(#arrow)"/> <line x1="415" y1="154" x2="415" y2="200" stroke="#888" stroke-width="1.5" marker-end="url(#arrow)"/> <line x1="545" y1="132" x2="595" y2="200" stroke="#888" stroke-width="1.5" marker-end="url(#arrow)"/>
<rect x="15" y="200" width="100" height="56" rx="8" fill="#EEEDFE" stroke="#534AB7" stroke-width="0.5"/><text font-family="sans-serif" font-size="14" font-weight="500" x="65" y="219" text-anchor="middle" dominant-baseline="central" fill="#534AB7">Page nav</text><text font-family="sans-serif" font-size="12" x="65" y="239" text-anchor="middle" dominant-baseline="central" fill="#534AB7">AnimatePresence 300ms</text>
<rect x="120" y="200" width="100" height="56" rx="8" fill="#EEEDFE" stroke="#534AB7" stroke-width="0.5"/><text font-family="sans-serif" font-size="14" font-weight="500" x="170" y="219" text-anchor="middle" dominant-baseline="central" fill="#534AB7">Number</text><text font-family="sans-serif" font-size="12" x="170" y="239" text-anchor="middle" dominant-baseline="central" fill="#534AB7">useCountUp 800ms</text>
<rect x="235" y="200" width="100" height="56" rx="8" fill="#EEEDFE" stroke="#534AB7" stroke-width="0.5"/><text font-family="sans-serif" font-size="14" font-weight="500" x="285" y="219" text-anchor="middle" dominant-baseline="central" fill="#534AB7">Typewriter</text><text font-family="sans-serif" font-size="12" x="285" y="239" text-anchor="middle" dominant-baseline="central" fill="#534AB7">useTypewriter 28ms/char</text>
<rect x="365" y="200" width="100" height="56" rx="8" fill="#EEEDFE" stroke="#534AB7" stroke-width="0.5"/><text font-family="sans-serif" font-size="14" font-weight="500" x="415" y="219" text-anchor="middle" dominant-baseline="central" fill="#534AB7">Feed pulse</text><text font-family="sans-serif" font-size="12" x="415" y="239" text-anchor="middle" dominant-baseline="central" fill="#534AB7">Slide up 150ms</text>
<rect x="545" y="200" width="100" height="56" rx="8" fill="#EEEDFE" stroke="#534AB7" stroke-width="0.5"/><text font-family="sans-serif" font-size="14" font-weight="500" x="595" y="219" text-anchor="middle" dominant-baseline="central" fill="#534AB7">Cinematic</text><text font-family="sans-serif" font-size="12" x="595" y="239" text-anchor="middle" dominant-baseline="central" fill="#534AB7">Full screen 600ms+</text>
<line x1="65" y1="256" x2="165" y2="314" stroke="#888" stroke-width="1.5" marker-end="url(#arrow)"/> <line x1="170" y1="256" x2="220" y2="314" stroke="#888" stroke-width="1.5" marker-end="url(#arrow)"/> <line x1="285" y1="256" x2="290" y2="314" stroke="#888" stroke-width="1.5" marker-end="url(#arrow)"/> <line x1="415" y1="256" x2="360" y2="314" stroke="#888" stroke-width="1.5" marker-end="url(#arrow)"/> <line x1="595" y1="256" x2="515" y2="314" stroke="#888" stroke-width="1.5" marker-end="url(#arrow)"/>
<rect x="155" y="314" width="370" height="56" rx="8" fill="#FAEEDA" stroke="#854F0B" stroke-width="0.5"/><text font-family="sans-serif" font-size="14" font-weight="500" x="340" y="333" text-anchor="middle" dominant-baseline="central" fill="#854F0B">Framer Motion + custom hooks</text><text font-family="sans-serif" font-size="12" x="340" y="353" text-anchor="middle" dominant-baseline="central" fill="#854F0B">AnimatePresence, motion.div, useReducedMotion</text>
<line x1="340" y1="370" x2="340" y2="406" stroke="#888" stroke-width="1.5" marker-end="url(#arrow)"/>
<rect x="155" y="406" width="370" height="44" rx="8" fill="#E1F5EE" stroke="#0F6E56" stroke-width="0.5"/><text font-family="sans-serif" font-size="14" font-weight="500" x="340" y="428" text-anchor="middle" dominant-baseline="central" fill="#0F6E56">Respect prefers-reduced-motion</text>
<line x1="340" y1="450" x2="340" y2="486" stroke="#888" stroke-width="1.5" marker-end="url(#arrow)"/>
<rect x="155" y="486" width="370" height="44" rx="8" fill="#F1EFE8" stroke="#5F5E5A" stroke-width="0.5"/><text font-family="sans-serif" font-size="14" font-weight="500" x="340" y="508" text-anchor="middle" dominant-baseline="central" fill="#5F5E5A">Render animated component</text>

</svg>