<svg width="100%" viewBox="0 0 680 580" xmlns="http://www.w3.org/2000/svg">
<defs><marker id="arrow" viewBox="0 0 10 10" refX="8" refY="5" markerWidth="6" markerHeight="6" orient="auto-start-reverse"><path d="M2 1L8 5L2 9" fill="none" stroke="#888" stroke-width="1.5" stroke-linecap="round" stroke-linejoin="round"/></marker></defs>
<text font-family="sans-serif" font-size="11" fill="#4A4844" x="340" y="18" text-anchor="middle">free agency flow</text>

<rect x="215" y="30" width="250" height="44" rx="8" fill="#F1EFE8" stroke="#5F5E5A" stroke-width="0.5"/><text font-family="sans-serif" font-size="14" font-weight="500" x="340" y="52" text-anchor="middle" dominant-baseline="central" fill="#5F5E5A">Player enters FA pool</text>
<line x1="155" y1="52" x2="80" y2="110" stroke="#888" stroke-width="1.5" marker-end="url(#arrow)"/> <line x1="340" y1="74" x2="340" y2="110" stroke="#888" stroke-width="1.5" marker-end="url(#arrow)"/> <line x1="525" y1="52" x2="600" y2="110" stroke="#888" stroke-width="1.5" marker-end="url(#arrow)"/>
<rect x="30" y="110" width="130" height="56" rx="8" fill="#F1EFE8" stroke="#5F5E5A" stroke-width="0.5"/><text font-family="sans-serif" font-size="14" font-weight="500" x="95" y="129" text-anchor="middle" dominant-baseline="central" fill="#5F5E5A">Contract expired</text><text font-family="sans-serif" font-size="12" x="95" y="149" text-anchor="middle" dominant-baseline="central" fill="#5F5E5A">Season ended</text>
<rect x="275" y="110" width="130" height="56" rx="8" fill="#F1EFE8" stroke="#5F5E5A" stroke-width="0.5"/><text font-family="sans-serif" font-size="14" font-weight="500" x="340" y="129" text-anchor="middle" dominant-baseline="central" fill="#5F5E5A">Opt out</text><text font-family="sans-serif" font-size="12" x="340" y="149" text-anchor="middle" dominant-baseline="central" fill="#5F5E5A">Persona triggered</text>
<rect x="540" y="110" width="130" height="56" rx="8" fill="#F1EFE8" stroke="#5F5E5A" stroke-width="0.5"/><text font-family="sans-serif" font-size="14" font-weight="500" x="605" y="129" text-anchor="middle" dominant-baseline="central" fill="#5F5E5A">Buyout</text><text font-family="sans-serif" font-size="12" x="605" y="149" text-anchor="middle" dominant-baseline="central" fill="#5F5E5A">Deadline window</text>
<line x1="95" y1="166" x2="220" y2="222" stroke="#888" stroke-width="1.5" marker-end="url(#arrow)"/> <line x1="340" y1="166" x2="340" y2="222" stroke="#888" stroke-width="1.5" marker-end="url(#arrow)"/> <line x1="605" y1="166" x2="460" y2="222" stroke="#888" stroke-width="1.5" marker-end="url(#arrow)"/>
<rect x="155" y="222" width="370" height="56" rx="8" fill="#FAEEDA" stroke="#854F0B" stroke-width="0.5"/><text font-family="sans-serif" font-size="14" font-weight="500" x="340" y="241" text-anchor="middle" dominant-baseline="central" fill="#854F0B">Demand package generated</text><text font-family="sans-serif" font-size="12" x="340" y="261" text-anchor="middle" dominant-baseline="central" fill="#854F0B">Stats baseline + persona shape + GM rep filter</text>
<line x1="340" y1="278" x2="340" y2="314" stroke="#888" stroke-width="1.5" marker-end="url(#arrow)"/>
<rect x="115" y="314" width="450" height="56" rx="8" fill="#EEEDFE" stroke="#534AB7" stroke-width="0.5"/><text font-family="sans-serif" font-size="14" font-weight="500" x="340" y="333" text-anchor="middle" dominant-baseline="central" fill="#534AB7">Contract offer presented</text><text font-family="sans-serif" font-size="12" x="340" y="353" text-anchor="middle" dominant-baseline="central" fill="#534AB7">Years / Salary / Role guarantee / Pathway clause</text>
<line x1="115" y1="342" x2="55" y2="406" stroke="#888" stroke-width="1.5" marker-end="url(#arrow)"/> <line x1="340" y1="370" x2="340" y2="406" stroke="#888" stroke-width="1.5" marker-end="url(#arrow)"/> <line x1="565" y1="342" x2="625" y2="406" stroke="#888" stroke-width="1.5" marker-end="url(#arrow)"/>
<rect x="15" y="406" width="110" height="56" rx="8" fill="#E1F5EE" stroke="#0F6E56" stroke-width="0.5"/><text font-family="sans-serif" font-size="14" font-weight="500" x="70" y="425" text-anchor="middle" dominant-baseline="central" fill="#0F6E56">Accept</text><text font-family="sans-serif" font-size="12" x="70" y="445" text-anchor="middle" dominant-baseline="central" fill="#0F6E56">Player signs</text>
<rect x="275" y="406" width="130" height="56" rx="8" fill="#FAEEDA" stroke="#854F0B" stroke-width="0.5"/><text font-family="sans-serif" font-size="14" font-weight="500" x="340" y="425" text-anchor="middle" dominant-baseline="central" fill="#854F0B">Counter</text><text font-family="sans-serif" font-size="12" x="340" y="445" text-anchor="middle" dominant-baseline="central" fill="#854F0B">One chance</text>
<rect x="555" y="406" width="110" height="56" rx="8" fill="#FCEBEB" stroke="#A32D2D" stroke-width="0.5"/><text font-family="sans-serif" font-size="14" font-weight="500" x="610" y="425" text-anchor="middle" dominant-baseline="central" fill="#A32D2D">Walk away</text><text font-family="sans-serif" font-size="12" x="610" y="445" text-anchor="middle" dominant-baseline="central" fill="#A32D2D">Signs elsewhere</text>
<line x1="340" y1="462" x2="340" y2="498" stroke="#888" stroke-width="1.5" marker-end="url(#arrow)"/>
<rect x="155" y="498" width="370" height="44" rx="8" fill="#E1F5EE" stroke="#0F6E56" stroke-width="0.5"/><text font-family="sans-serif" font-size="14" font-weight="500" x="340" y="520" text-anchor="middle" dominant-baseline="central" fill="#0F6E56">Contract saved — pathway clause locked in</text>

</svg>