<svg width="100%" viewBox="0 0 680 560" xmlns="http://www.w3.org/2000/svg">
<defs><marker id="arrow" viewBox="0 0 10 10" refX="8" refY="5" markerWidth="6" markerHeight="6" orient="auto-start-reverse"><path d="M2 1L8 5L2 9" fill="none" stroke="#888" stroke-width="1.5" stroke-linecap="round" stroke-linejoin="round"/></marker></defs>
<text font-family="sans-serif" font-size="11" fill="#4A4844" x="340" y="18" text-anchor="middle">offseason flow</text>

<rect x="215" y="30" width="250" height="44" rx="8" fill="#F1EFE8" stroke="#5F5E5A" stroke-width="0.5"/><text font-family="sans-serif" font-size="14" font-weight="500" x="340" y="52" text-anchor="middle" dominant-baseline="central" fill="#5F5E5A">Season ends — offseason opens</text>
<line x1="340" y1="74" x2="340" y2="110" stroke="#888" stroke-width="1.5" marker-end="url(#arrow)"/>
<rect x="155" y="110" width="370" height="44" rx="8" fill="#FAEEDA" stroke="#854F0B" stroke-width="0.5"/><text font-family="sans-serif" font-size="14" font-weight="500" x="340" y="132" text-anchor="middle" dominant-baseline="central" fill="#854F0B">6-week open window — all available from day 1</text>
<line x1="155" y1="132" x2="55" y2="196" stroke="#888" stroke-width="1.5" marker-end="url(#arrow)"/> <line x1="255" y1="154" x2="185" y2="196" stroke="#888" stroke-width="1.5" marker-end="url(#arrow)"/> <line x1="340" y1="154" x2="340" y2="196" stroke="#888" stroke-width="1.5" marker-end="url(#arrow)"/> <line x1="425" y1="154" x2="475" y2="196" stroke="#888" stroke-width="1.5" marker-end="url(#arrow)"/> <line x1="525" y1="132" x2="605" y2="196" stroke="#888" stroke-width="1.5" marker-end="url(#arrow)"/>
<rect x="15" y="196" width="120" height="56" rx="8" fill="#EEEDFE" stroke="#534AB7" stroke-width="0.5"/><text font-family="sans-serif" font-size="14" font-weight="500" x="75" y="215" text-anchor="middle" dominant-baseline="central" fill="#534AB7">Contract extensions</text><text font-family="sans-serif" font-size="12" x="75" y="235" text-anchor="middle" dominant-baseline="central" fill="#534AB7">Week 3 deadline</text>
<rect x="145" y="196" width="110" height="56" rx="8" fill="#EEEDFE" stroke="#534AB7" stroke-width="0.5"/><text font-family="sans-serif" font-size="14" font-weight="500" x="200" y="215" text-anchor="middle" dominant-baseline="central" fill="#534AB7">Coaching changes</text><text font-family="sans-serif" font-size="12" x="200" y="235" text-anchor="middle" dominant-baseline="central" fill="#534AB7">Hire/fire/upgrade</text>
<rect x="295" y="196" width="90" height="56" rx="8" fill="#EEEDFE" stroke="#534AB7" stroke-width="0.5"/><text font-family="sans-serif" font-size="14" font-weight="500" x="340" y="224" text-anchor="middle" dominant-baseline="central" fill="#534AB7">Scouting window opens</text>
<rect x="435" y="196" width="100" height="56" rx="8" fill="#EEEDFE" stroke="#534AB7" stroke-width="0.5"/><text font-family="sans-serif" font-size="14" font-weight="500" x="485" y="224" text-anchor="middle" dominant-baseline="central" fill="#534AB7">Free agency (week 3)</text>
<rect x="545" y="196" width="110" height="56" rx="8" fill="#EEEDFE" stroke="#534AB7" stroke-width="0.5"/><text font-family="sans-serif" font-size="14" font-weight="500" x="600" y="224" text-anchor="middle" dominant-baseline="central" fill="#534AB7">Draft night (week 5)</text>
<line x1="75" y1="252" x2="175" y2="316" stroke="#888" stroke-width="1.5" marker-end="url(#arrow)"/> <line x1="200" y1="252" x2="240" y2="316" stroke="#888" stroke-width="1.5" marker-end="url(#arrow)"/> <line x1="340" y1="252" x2="340" y2="316" stroke="#888" stroke-width="1.5" marker-end="url(#arrow)"/> <line x1="485" y1="252" x2="400" y2="316" stroke="#888" stroke-width="1.5" marker-end="url(#arrow)"/> <line x1="600" y1="252" x2="520" y2="316" stroke="#888" stroke-width="1.5" marker-end="url(#arrow)"/>
<rect x="155" y="316" width="370" height="56" rx="8" fill="#FAEEDA" stroke="#854F0B" stroke-width="0.5"/><text font-family="sans-serif" font-size="14" font-weight="500" x="340" y="335" text-anchor="middle" dominant-baseline="central" fill="#854F0B">Pathway resets (week 6)</text><text font-family="sans-serif" font-size="12" x="340" y="355" text-anchor="middle" dominant-baseline="central" fill="#854F0B">Clean slate — no mid-season penalty</text>
<line x1="340" y1="372" x2="340" y2="408" stroke="#888" stroke-width="1.5" marker-end="url(#arrow)"/>
<rect x="155" y="408" width="370" height="56" rx="8" fill="#E1F5EE" stroke="#0F6E56" stroke-width="0.5"/><text font-family="sans-serif" font-size="14" font-weight="500" x="340" y="427" text-anchor="middle" dominant-baseline="central" fill="#0F6E56">Set franchise goal</text><text font-family="sans-serif" font-size="12" x="340" y="447" text-anchor="middle" dominant-baseline="central" fill="#0F6E56">Required to start next season</text>
<line x1="340" y1="464" x2="340" y2="500" stroke="#888" stroke-width="1.5" marker-end="url(#arrow)"/>
<rect x="215" y="500" width="250" height="44" rx="8" fill="#F1EFE8" stroke="#5F5E5A" stroke-width="0.5"/><text font-family="sans-serif" font-size="14" font-weight="500" x="340" y="522" text-anchor="middle" dominant-baseline="central" fill="#5F5E5A">Season N+1 begins</text>

</svg>